<svg version="1.1" id="Layer_1" xmlns="http://www.w3.org/2000/svg" xmlns:xlink="http://www.w3.org/1999/xlink" x="0px" y="0px"
	width="100%" viewBox="0 0 1024 1024" xml:space="preserve">
<path fill="#877FFF" opacity="1.000000" stroke="none" 
	d="
M842.035400,592.896851 
	C836.382324,611.670166 831.642273,630.353333 824.885559,648.276306 
	C816.624634,670.189331 804.752197,690.319946 791.111755,709.490234 
	C778.559875,727.130737 764.423584,743.301758 748.581177,757.862915 
	C737.048523,768.462891 724.642639,778.220337 711.957886,787.433350 
	C694.247559,800.296265 675.067261,810.841614 655.187866,820.014038 
	C632.536865,830.465271 609.037720,838.349670 584.490234,843.104736 
	C568.065674,846.286377 551.563354,848.143127 534.852966,849.304443 
	C515.502747,850.649292 496.532196,848.721741 477.518127,846.132935 
	C442.405823,841.352234 409.224426,830.491150 377.572388,814.598022 
	C360.650085,806.101013 344.783081,796.059265 329.067261,785.515015 
	C308.608887,771.788818 291.348633,754.690979 274.613647,737.025269 
	C266.125549,728.065186 259.095093,717.681091 251.757141,707.682861 
	C231.308868,679.821106 216.973495,648.867493 207.934036,615.683838 
	C203.046066,597.740173 199.701721,579.262817 197.204102,560.817261 
	C195.231659,546.250244 194.863190,531.351318 195.117310,516.622864 
	C195.569366,490.419769 199.438416,464.601990 206.372406,439.266266 
	C212.536758,416.742706 220.413818,394.781067 232.276062,374.723511 
	C242.672043,357.145264 254.188492,340.075562 266.741669,323.975403 
	C277.007812,310.808502 288.565826,298.257477 301.301788,287.507477 
	C316.924377,274.320953 333.891693,262.540436 351.180603,251.575882 
	C364.410309,243.185684 378.771942,236.402939 393.112213,229.981934 
	C415.821259,219.813736 439.556763,212.644989 464.042664,207.911774 
	C488.796906,203.126678 513.807434,201.966675 538.835571,203.151550 
	C559.610962,204.135101 580.185913,207.346344 600.468506,212.453125 
	C629.437378,219.746902 656.798218,231.045364 682.790344,245.445663 
	C701.548645,255.838226 719.228943,267.976929 735.738525,281.902008 
	C758.028076,300.702087 777.632568,321.844940 794.226868,345.704529 
	C809.739929,368.009399 822.224304,392.007935 831.102295,417.744171 
	C838.401550,438.903961 844.160095,460.497650 846.002869,482.881531 
	C847.415527,500.040894 849.396484,517.318420 848.692688,534.443420 
	C847.895325,553.843628 844.385071,573.132446 842.035400,592.896851 
M604.137146,417.482758 
	C601.641968,415.854004 599.225159,414.087189 596.638855,412.618927 
	C580.106018,403.233124 563.555542,393.877808 546.968384,384.588379 
	C540.198181,380.796814 536.076355,375.680450 536.711975,367.392944 
	C537.080261,362.590546 536.684998,357.733734 536.769226,352.903778 
	C536.818359,350.085480 535.629150,349.153473 532.842590,349.211914 
	C525.763733,349.360382 518.675842,349.378876 511.598724,349.186523 
	C508.414185,349.099945 507.040833,350.019318 507.163086,353.393463 
	C507.362030,358.884277 506.961975,364.402588 507.285675,369.881439 
	C507.566589,374.636230 505.488831,378.218201 501.898163,380.447144 
	C490.978821,387.225616 479.798004,393.583313 468.712555,400.093811 
	C459.492493,405.508759 450.308746,410.987701 441.025726,416.292694 
	C431.300598,421.850281 421.512451,427.300629 411.682465,432.670837 
	C405.129578,436.250732 398.541351,435.325409 392.158234,432.113342 
	C387.736511,429.888245 383.435913,427.422485 379.136932,425.094421 
	C373.488281,433.254791 368.001953,441.180664 362.215668,449.539856 
	C366.965759,452.366089 371.681732,455.881866 376.944458,458.100952 
	C382.068512,460.261597 383.235779,463.777130 383.230835,468.616302 
	C383.194031,504.604065 383.199036,540.591919 383.247528,576.579651 
	C383.250824,579.044189 384.047272,581.531250 383.879028,583.966614 
	C383.646729,587.328247 383.806152,591.334717 382.039673,593.810669 
	C379.992188,596.680481 376.076477,598.249268 372.903046,600.275208 
	C369.488281,602.455200 365.993835,604.510376 362.923737,606.382446 
	C368.764984,615.167480 374.208893,623.354919 380.020294,632.095032 
	C382.090057,630.931335 384.648895,629.530273 387.171631,628.067139 
	C394.705322,623.697693 402.783661,620.438904 411.246399,623.986755 
	C419.409576,627.408936 427.105072,632.033325 434.776581,636.521729 
	C446.441803,643.346741 457.825195,650.653137 469.485809,657.486267 
	C479.445374,663.322510 489.657471,668.726013 499.697357,674.427490 
	C504.933289,677.400818 507.215485,682.149475 507.208649,688.085449 
	C507.204041,692.084106 507.338531,696.088074 507.172821,700.079773 
	C507.034180,703.419189 508.772400,703.955017 511.551819,703.745117 
	C516.829102,703.346436 522.116516,703.062317 527.403931,702.823425 
	C530.399597,702.687988 535.211609,703.814819 536.012939,702.470337 
	C537.502808,699.970642 537.013794,696.046265 536.716919,692.772339 
	C535.782471,682.468384 540.380859,676.105713 549.494263,671.532532 
	C561.764343,665.375305 573.666626,658.452393 585.519226,651.504028 
	C599.346619,643.397949 612.919189,634.858521 626.661316,626.605286 
	C635.903076,621.054871 645.154846,621.035522 654.380066,626.864014 
	C657.025635,628.535461 659.834900,630.041382 662.750671,631.142578 
	C663.826660,631.549011 666.079956,631.024231 666.681396,630.153870 
	C671.274170,623.506714 675.522705,616.622925 680.030457,609.915039 
	C681.673828,607.469421 681.168762,606.129028 678.655151,604.863464 
	C674.499573,602.771240 670.577209,600.179810 666.329773,598.315552 
	C661.498962,596.195190 659.719666,592.591553 659.782104,587.659790 
	C659.889526,579.168579 660.073181,570.677551 660.084717,562.186218 
	C660.126526,531.363281 660.172546,500.540192 660.064880,469.717682 
	C660.042603,463.339203 662.084473,459.096619 668.485474,456.678406 
	C673.126709,454.925049 677.215942,451.710602 681.432495,449.217896 
	C677.184631,443.035767 673.242920,437.526611 669.542542,431.859863 
	C664.247681,423.751190 663.630554,423.563721 655.567749,429.153656 
	C655.163757,429.433716 654.910217,429.962677 654.486145,430.177429 
	C646.148926,434.400055 638.022644,437.529358 628.851868,431.469025 
	C621.178345,426.398163 612.812866,422.374298 604.137146,417.482758 
M698.727173,365.224640 
	C689.099304,376.832947 684.196228,389.622925 687.492004,405.037567 
	C689.716919,415.443512 695.242310,423.953125 703.165894,430.074371 
	C723.627991,445.882141 749.449646,442.431213 765.575928,423.955170 
	C773.286865,415.120636 777.621094,404.722412 776.595825,393.020935 
	C775.526123,380.811798 770.314819,370.219208 760.711365,362.122131 
	C740.941772,345.453552 717.402771,348.008301 698.727173,365.224640 
M292.037048,620.535034 
	C283.370239,624.266357 277.790894,631.123779 273.304749,639.073486 
	C259.254822,663.971069 275.267578,697.056396 303.937958,703.035889 
	C325.268738,707.484619 345.136108,695.663147 353.770386,677.529785 
	C365.451385,652.997803 350.951447,626.004517 328.500183,617.396423 
	C316.085388,612.636475 304.223938,613.977234 292.037048,620.535034 
M757.400696,623.149536 
	C733.021484,605.464417 704.232361,617.705200 693.533447,636.184692 
	C688.978149,644.052673 685.426270,652.522522 686.461426,661.685364 
	C687.798828,673.523682 693.107605,683.661865 702.142456,691.816284 
	C713.974609,702.495483 727.634399,706.711426 742.971252,702.555298 
	C756.749084,698.821777 766.664185,689.682922 772.751221,676.723389 
	C777.056274,667.557739 777.953552,658.118103 775.153320,648.150757 
	C772.250366,637.817932 765.797607,630.221069 757.400696,623.149536 
M343.744843,363.720581 
	C332.894043,354.328735 320.632782,348.825958 306.021606,351.389648 
	C293.026947,353.669678 282.021393,360.164917 275.087555,371.369934 
	C262.941132,390.998444 265.992920,414.980560 286.167145,430.676697 
	C297.485901,439.483063 310.361847,441.926758 324.276428,438.595703 
	C331.152252,436.949646 336.837860,433.444763 342.274445,428.687958 
	C351.953613,420.219086 356.956299,409.968018 357.804352,397.353241 
	C358.698059,384.059204 352.676849,373.682800 343.744843,363.720581 
M478.202728,775.305725 
	C479.364624,788.685791 484.780457,799.667542 495.747650,807.873901 
	C507.001343,816.294434 519.410706,818.814331 532.884155,815.643982 
	C541.436829,813.631470 548.252625,808.741516 554.521240,802.370178 
	C563.094177,793.656616 566.671814,782.999939 566.348145,771.718994 
	C565.905396,756.285828 558.079895,744.051331 544.923523,735.599670 
	C523.054443,721.551025 500.516541,729.123901 486.732666,746.483582 
	C480.559418,754.258301 477.174408,763.893555 478.202728,775.305725 
M477.949036,278.076691 
	C477.744110,279.039062 477.270996,280.031372 477.374481,280.959351 
	C478.898590,294.624573 484.323792,305.925568 495.185669,315.089355 
	C506.894043,324.967316 527.790771,328.639099 540.284729,320.674011 
	C545.794373,317.161530 551.402283,313.340210 555.743042,308.551056 
	C565.615601,297.658630 568.522339,284.665771 565.069885,270.222473 
	C560.576599,251.424881 538.508118,232.993439 513.834717,237.955368 
	C495.638153,241.614777 478.697571,257.877869 477.949036,278.076691 
M762.924500,594.415222 
	C766.643372,596.812073 770.362244,599.208862 775.244690,602.355591 
	C782.942932,552.036255 783.613220,502.642395 774.587830,452.311066 
	C772.087158,453.612274 770.804932,454.263763 769.536987,454.941864 
	C761.508179,459.235840 753.622986,464.152130 744.133057,464.098755 
	C740.016602,464.075623 739.121277,465.551117 739.132446,469.346100 
	C739.244690,507.490326 739.272217,545.635315 739.103760,583.779175 
	C739.083557,588.351685 741.177917,589.209534 744.983826,589.872559 
	C750.806091,590.886902 756.501587,592.628784 762.924500,594.415222 
M263.204834,516.590332 
	C263.483948,545.135925 263.625092,573.692871 269.517426,601.931213 
	C270.483215,601.637695 270.852386,601.621155 271.095825,601.437744 
	C280.244110,594.544678 289.937531,589.191284 301.944061,589.554382 
	C302.857635,589.581970 304.601471,587.257202 304.665985,585.961426 
	C304.963104,579.995483 304.803497,574.006775 304.803619,568.026184 
	C304.804352,535.231995 304.798859,502.437805 304.812927,469.643616 
	C304.814087,466.929291 305.199280,464.480377 301.067932,464.124939 
	C296.507690,463.732574 291.810425,462.931274 287.571320,461.283142 
	C281.394684,458.881744 275.574127,455.564545 268.307343,452.003448 
	C266.581726,473.532990 264.895111,494.575867 263.204834,516.590332 
M674.361633,700.105347 
	C669.809998,693.019775 668.901367,692.663330 663.166748,696.161804 
	C653.928894,701.797363 644.900024,707.798889 635.476135,713.100464 
	C622.872314,720.190857 609.986145,726.780701 597.198364,733.542114 
	C593.030762,735.745544 588.791382,737.813171 585.548401,739.455078 
	C587.945740,746.689148 590.705078,752.959656 592.007935,759.519409 
	C593.335205,766.202698 593.229614,773.170532 593.828918,781.029480 
	C630.446655,764.140808 664.777893,744.960266 698.299377,722.347229 
	C695.614319,720.515259 693.643127,719.550232 692.158508,718.090393 
	C686.319885,712.348938 680.634338,706.451782 674.361633,700.105347 
M401.041412,297.533112 
	C381.845947,307.671448 363.726105,319.508820 344.316193,332.318268 
	C358.903809,338.267487 367.133392,349.007324 374.408997,359.703003 
	C402.916718,343.788422 430.821136,328.210632 459.139740,312.401642 
	C452.112976,300.765930 450.433380,287.578461 450.620667,273.366180 
	C443.792419,276.128479 437.668610,278.150116 431.966675,281.012299 
	C421.745392,286.142975 411.777893,291.779236 401.041412,297.533112 
M634.283630,339.111267 
	C646.168335,346.145294 658.053040,353.179321 669.705078,360.075653 
	C677.141602,349.815826 684.577942,340.645996 695.499512,335.043213 
	C698.730896,333.385498 698.811890,331.767273 695.603577,329.778229 
	C690.268616,326.470734 685.137634,322.834290 679.805786,319.521484 
	C668.165222,312.288818 656.713928,304.693207 644.700500,298.133942 
	C630.736938,290.509979 616.281128,283.782166 601.972229,276.802002 
	C599.546387,275.618622 596.785095,275.122772 593.055664,273.958771 
	C594.214417,288.492462 591.769775,301.589417 584.163330,312.983002 
	C600.973450,321.786255 617.277161,330.324310 634.283630,339.111267 
M428.032104,724.532593 
	C420.552887,720.366089 412.982819,716.353027 405.617737,711.993652 
	C396.658691,706.690918 387.852448,701.128235 379.022522,695.610046 
	C376.148071,693.813721 374.108978,693.276672 371.618713,696.732483 
	C367.317627,702.701172 362.581146,708.426819 357.468628,713.714233 
	C354.284424,717.007385 350.073669,719.307983 345.991638,722.297058 
	C379.546692,744.380676 413.821686,763.895386 450.710480,780.935425 
	C450.404785,765.864136 451.941437,752.328613 459.489502,740.149475 
	C448.841644,734.880310 438.760193,729.891418 428.032104,724.532593 
z"/>
<path fill="#887FFF" opacity="1.000000" stroke="none" 
	d="
M423.624939,485.630981 
	C421.885986,474.530243 428.581787,469.236694 436.526550,464.664398 
	C447.981598,458.071960 459.378265,451.378052 470.831848,444.783020 
	C481.982849,438.362213 493.169647,432.003540 504.350769,425.635223 
	C507.064911,424.089325 509.982880,422.846741 512.523926,421.061554 
	C521.242310,414.936584 528.933411,418.952789 536.541382,423.332184 
	C545.957031,428.752228 555.281494,434.331360 564.624634,439.876678 
	C577.635193,447.598694 590.607605,455.385284 603.640503,463.069366 
	C606.626038,464.829651 609.952515,466.039764 612.837891,467.935638 
	C617.672852,471.112518 620.309753,475.488342 620.282593,481.628723 
	C620.145142,512.701172 619.959778,543.778137 620.391174,574.845154 
	C620.504822,583.027832 616.430664,587.287476 610.307373,590.866821 
	C603.765503,594.690796 597.216980,598.504333 590.632874,602.254822 
	C577.127563,609.947754 563.577393,617.562012 550.086182,625.279419 
	C545.078735,628.143860 540.130798,631.120972 535.251343,634.198425 
	C527.418152,639.138550 519.593689,640.661804 511.042908,635.659424 
	C494.029999,625.706604 476.853851,616.033081 459.763367,606.212463 
	C450.285309,600.766174 440.863251,595.222290 431.378296,589.788147 
	C426.395111,586.933105 423.631348,583.190308 423.640869,576.993103 
	C423.684601,548.516235 423.369659,520.039001 423.214478,491.561707 
	C423.204529,489.738586 423.456573,487.914032 423.624939,485.630981 
M530.242920,503.778381 
	C531.805603,504.689087 533.343506,505.645996 534.935181,506.502838 
	C543.947327,511.354370 552.786377,516.584106 562.059753,520.873413 
	C568.049500,523.643921 576.392395,521.422913 579.040344,517.634888 
	C584.286316,510.130341 584.312561,505.837280 578.047607,498.460449 
	C575.831116,495.850586 572.385681,494.204437 569.328735,492.412903 
	C566.766235,490.911163 563.864624,489.995819 561.265991,488.546661 
	C551.991455,483.374603 542.795776,478.061279 533.543640,472.848694 
	C526.281250,468.757111 518.907837,469.037506 511.663849,472.785950 
	C506.953430,475.223419 502.476288,478.107819 497.805695,480.627136 
	C488.147583,485.836639 478.390045,490.862549 468.753265,496.110626 
	C463.670746,498.878540 460.795441,506.684265 462.808960,511.480347 
	C467.082428,521.659546 478.763306,525.167969 488.422729,519.301636 
	C495.653961,514.910034 502.871277,510.465973 510.333710,506.494110 
	C516.243835,503.348419 522.568909,501.238953 530.242920,503.778381 
M496.206329,543.977600 
	C490.701050,546.907471 485.093018,545.898926 479.293243,544.872559 
	C469.721741,543.178833 465.569946,546.219482 462.799713,553.563538 
	C460.751923,558.992432 463.584351,566.556519 468.980316,569.888489 
	C481.347870,577.525391 498.059723,576.431335 509.811646,567.666199 
	C516.299377,562.827332 527.223450,562.610840 534.632141,566.973572 
	C542.228516,571.446838 549.531616,577.751526 559.740906,574.861633 
	C566.525574,572.941101 573.868713,572.768738 578.966003,566.714294 
	C582.952637,561.979126 583.813782,557.202393 580.981750,552.095581 
	C577.589233,545.978271 572.609131,543.477295 566.305054,544.894043 
	C559.148438,546.502319 552.249817,546.610352 545.745117,542.469849 
	C541.992188,540.080994 538.160889,537.766846 534.175232,535.804260 
	C529.287598,533.397644 524.215698,530.731995 518.574097,533.289368 
	C511.286835,536.592712 504.121460,540.164978 496.206329,543.977600 
z"/>
</svg>